<svg width="461" height="205" viewBox="0 0 461 205" fill="none" xmlns="http://www.w3.org/2000/svg">
<g clip-path="url(#clip0_5_489)">
<path d="M196.257 130.967H9.49618C6.9785 130.964 4.56475 129.961 2.78449 128.178C1.00422 126.395 0.00282592 123.978 0 121.456V7.24307C0.00212209 5.32278 0.764674 3.48176 2.12036 2.12388C3.47604 0.766013 5.31415 0.00219223 7.23141 0H198.414C200.36 0.00219495 202.225 0.777334 203.601 2.15535C204.977 3.53337 205.751 5.40172 205.753 7.35051V121.456C205.75 123.978 204.749 126.395 202.969 128.178C201.188 129.961 198.775 130.964 196.257 130.967Z" fill="white"/>
<path d="M196.257 130.967H9.49618C6.9785 130.964 4.56475 129.961 2.78449 128.178C1.00422 126.395 0.00282592 123.978 0 121.456V7.24307C0.00212209 5.32278 0.764674 3.48176 2.12036 2.12388C3.47604 0.766013 5.31415 0.00219223 7.23141 0H198.414C200.36 0.00219495 202.225 0.777334 203.601 2.15535C204.977 3.53337 205.751 5.40172 205.753 7.35051V121.456C205.75 123.978 204.749 126.395 202.969 128.178C201.188 129.961 198.775 130.964 196.257 130.967ZM7.23141 2.05647C5.85852 2.05807 4.54233 2.60505 3.57157 3.57738C2.60081 4.54972 2.05477 5.86801 2.05323 7.24307V121.456C2.05547 123.432 2.84036 125.327 4.2357 126.725C5.63104 128.122 7.52287 128.908 9.49618 128.911H196.257C198.23 128.908 200.122 128.122 201.517 126.725C202.913 125.327 203.698 123.432 203.7 121.456V7.35051C203.698 5.94694 203.141 4.60128 202.15 3.6088C201.159 2.61631 199.816 2.05804 198.414 2.05647H7.23141Z" fill="#E6E6E6"/>
<path d="M85.2661 102.05H29.3054C27.9363 102.048 26.6143 101.549 25.5849 100.644C24.5555 99.7403 23.8886 98.4929 23.7078 97.1336C23.6738 96.8888 23.6575 96.6419 23.659 96.3948V34.5723C23.6607 33.0729 24.2562 31.6355 25.3147 30.5753C26.3732 29.5151 27.8084 28.9187 29.3054 28.917H85.2661C86.7631 28.9187 88.1983 29.5151 89.2568 30.5753C90.3154 31.6355 90.9108 33.0729 90.9125 34.5723V96.3948C90.9108 97.8941 90.3154 99.3316 89.2568 100.392C88.1983 101.452 86.7631 102.048 85.2661 102.05ZM29.3054 32.0017C28.625 32.0025 27.9726 32.2736 27.4915 32.7555C27.0103 33.2374 26.7397 33.8908 26.7389 34.5723V96.3948C26.7378 96.5005 26.7443 96.6061 26.7584 96.7108C26.837 97.3324 27.1389 97.9041 27.6076 98.319C28.0763 98.7339 28.6799 98.9637 29.3054 98.9654H85.2661C85.9466 98.9646 86.5989 98.6935 87.0801 98.2116C87.5612 97.7297 87.8319 97.0763 87.8327 96.3948V34.5723C87.8319 33.8908 87.5612 33.2374 87.0801 32.7555C86.5989 32.2736 85.9466 32.0025 85.2661 32.0017H29.3054Z" fill="#E6E6E6"/>
<path d="M177.988 81.9481H110.231C109.142 81.9481 108.097 81.5148 107.327 80.7435C106.557 79.9721 106.125 78.926 106.125 77.8352C106.125 76.7443 106.557 75.6982 107.327 74.9269C108.097 74.1556 109.142 73.7222 110.231 73.7222H177.988C179.077 73.7222 180.121 74.1556 180.891 74.9269C181.661 75.6982 182.094 76.7443 182.094 77.8352C182.094 78.926 181.661 79.9721 180.891 80.7435C180.121 81.5148 179.077 81.9481 177.988 81.9481Z" fill="#E6E6E6"/>
<path d="M147.189 64.4681H110.231C109.142 64.4681 108.097 64.0348 107.327 63.2635C106.557 62.4921 106.125 61.446 106.125 60.3552C106.125 59.2644 106.557 58.2182 107.327 57.4469C108.097 56.6756 109.142 56.2422 110.231 56.2422H147.189C148.278 56.2422 149.323 56.6756 150.093 57.4469C150.863 58.2182 151.296 59.2644 151.296 60.3552C151.296 61.446 150.863 62.4921 150.093 63.2635C149.323 64.0348 148.278 64.4681 147.189 64.4681Z" fill="#E6E6E6"/>
<path d="M75.7373 63.7844C75.7373 72.8705 67.3491 71.4962 57.0016 71.4962C46.6542 71.4962 38.2659 72.8705 38.2659 63.7844C38.2659 54.6984 42.3634 38.5927 57.0016 38.5927C72.1442 38.5927 75.7373 54.6984 75.7373 63.7844Z" fill="#2F2E41"/>
<path d="M76.4952 79.0762C76.1337 78.0315 75.4133 77.1496 74.4625 76.5879C74.2789 76.475 74.0867 76.377 73.8875 76.2948C73.0536 75.9475 72.1368 75.8511 71.2491 76.0173C70.3613 76.1835 69.5412 76.6051 68.8889 77.2307C68.2366 77.8562 67.7803 78.6585 67.576 79.5396C67.3716 80.4207 67.4279 81.3423 67.7381 82.1918L75.2016 99.1833H85.0314L76.4952 79.0762Z" fill="#3F3D56"/>
<path d="M43.9257 80.0016C43.3358 79.7161 42.6922 79.5587 42.0373 79.5398C41.3824 79.5209 40.7309 79.6408 40.1255 79.8918C39.5202 80.1428 38.9746 80.5191 38.5247 80.9961C38.0747 81.4731 37.7305 82.04 37.5146 82.6596L30.5645 99.0342C30.9204 99.1337 31.2882 99.1838 31.6577 99.1833H40.3789L46.2714 85.7751C46.6645 84.6927 46.6421 83.5027 46.2087 82.4359C45.7753 81.3691 44.9616 80.5015 43.9257 80.0016Z" fill="#3F3D56"/>
<path d="M56.939 71.481C63.9018 71.481 69.5463 65.8276 69.5463 58.8537C69.5463 51.8799 63.9018 46.2265 56.939 46.2265C49.9761 46.2265 44.3316 51.8799 44.3316 58.8537C44.3316 65.8276 49.9761 71.481 56.939 71.481Z" fill="#FFB8B8"/>
<path d="M74.683 76.7884C74.6114 76.7216 74.5394 76.6496 74.4625 76.5879C73.5836 75.7943 72.5435 75.2008 71.4136 74.8485C70.2838 74.4961 69.0912 74.3932 67.9178 74.5469L44.6854 77.4927C42.5572 77.7564 40.6153 78.8402 39.2718 80.5141C37.9282 82.1881 37.2886 84.3205 37.4889 86.4589C37.8072 90.0475 38.3205 94.5768 39.1418 99.1833H75.8433L77.1932 83.4719C77.3018 82.2407 77.1326 81.0007 76.6981 79.8438C76.2636 78.6869 75.5749 77.6427 74.683 76.7884Z" fill="#3F3D56"/>
<path d="M42.3724 57.615H47.3588L49.5587 51.4456L49.9985 57.615H52.3819L53.6651 54.0162L53.9218 57.615H71.6309C71.6309 54.0699 70.2248 50.6699 67.7219 48.1631C65.2191 45.6563 61.8245 44.248 58.2849 44.248H55.7184C52.1788 44.248 48.7842 45.6563 46.2813 48.1631C43.7785 50.6699 42.3724 54.0699 42.3724 57.615Z" fill="#2F2E41"/>
<path d="M255.247 121.456V7.35051C255.249 5.40172 256.023 3.53337 257.399 2.15535C258.775 0.777334 260.64 0.00219495 262.586 0H453.769C455.686 0.00219223 457.524 0.766013 458.88 2.12388C460.235 3.48176 460.998 5.32278 461 7.24307V121.456C460.997 123.978 459.996 126.395 458.216 128.178C456.435 129.961 454.021 130.964 451.504 130.967H264.743C262.225 130.964 259.812 129.961 258.031 128.178C256.251 126.395 255.25 123.978 255.247 121.456Z" fill="white"/>
<path d="M255.247 121.456V7.35051C255.249 5.40172 256.023 3.53337 257.399 2.15535C258.775 0.777334 260.64 0.00219495 262.586 0H453.769C455.686 0.00219223 457.524 0.766013 458.88 2.12388C460.235 3.48176 460.998 5.32278 461 7.24307V121.456C460.997 123.978 459.996 126.395 458.216 128.178C456.435 129.961 454.021 130.964 451.504 130.967H264.743C262.225 130.964 259.812 129.961 258.031 128.178C256.251 126.395 255.25 123.978 255.247 121.456ZM262.586 2.05647C261.184 2.05804 259.841 2.61631 258.85 3.6088C257.859 4.60128 257.302 5.94694 257.3 7.35051V121.456C257.302 123.432 258.087 125.327 259.483 126.725C260.878 128.122 262.77 128.908 264.743 128.911H451.504C453.477 128.908 455.369 128.122 456.764 126.725C458.16 125.327 458.945 123.432 458.947 121.456V7.24307C458.945 5.86801 458.399 4.54972 457.428 3.57738C456.458 2.60505 455.141 2.05808 453.769 2.05647H262.586Z" fill="#E6E6E6"/>
<path d="M370.087 96.3948V34.5723C370.089 33.0729 370.685 31.6355 371.743 30.5753C372.802 29.5151 374.237 28.9187 375.734 28.917H431.695C433.192 28.9187 434.627 29.5151 435.685 30.5753C436.744 31.6355 437.339 33.0729 437.341 34.5723V96.3948C437.342 96.6419 437.326 96.8888 437.292 97.1336C437.111 98.4929 436.444 99.7403 435.415 100.644C434.386 101.549 433.064 102.048 431.695 102.05H375.734C374.237 102.048 372.802 101.452 371.743 100.392C370.685 99.3316 370.089 97.8941 370.087 96.3948ZM375.734 32.0017C375.053 32.0025 374.401 32.2736 373.92 32.7555C373.439 33.2374 373.168 33.8908 373.167 34.5723V96.3948C373.168 97.0763 373.439 97.7297 373.92 98.2116C374.401 98.6935 375.053 98.9646 375.734 98.9654H431.695C432.32 98.9637 432.924 98.7339 433.392 98.319C433.861 97.9041 434.163 97.3324 434.242 96.7108C434.256 96.6061 434.262 96.5005 434.261 96.3948V34.5723C434.26 33.8908 433.99 33.2374 433.509 32.7555C433.027 32.2736 432.375 32.0025 431.695 32.0017H375.734Z" fill="#E6E6E6"/>
<path d="M278.906 77.8352C278.907 76.7447 279.34 75.6993 280.11 74.9283C280.88 74.1572 281.924 73.7235 283.012 73.7222H350.769C351.858 73.7222 352.903 74.1556 353.673 74.9269C354.443 75.6982 354.875 76.7443 354.875 77.8352C354.875 78.926 354.443 79.9721 353.673 80.7435C352.903 81.5148 351.858 81.9481 350.769 81.9481H283.012C281.924 81.9469 280.88 81.5131 280.11 80.7421C279.34 79.971 278.907 78.9256 278.906 77.8352Z" fill="#E6E6E6"/>
<path d="M278.906 60.3552C278.907 59.2647 279.34 58.2193 280.11 57.4483C280.88 56.6772 281.924 56.2435 283.012 56.2422H319.971C321.06 56.2422 322.104 56.6756 322.874 57.4469C323.644 58.2182 324.077 59.2644 324.077 60.3552C324.077 61.446 323.644 62.4921 322.874 63.2635C322.104 64.0348 321.06 64.4681 319.971 64.4681H283.012C281.924 64.4669 280.88 64.0331 280.11 63.2621C279.34 62.491 278.907 61.4456 278.906 60.3552Z" fill="#E6E6E6"/>
<path d="M389.885 52.9416C393.483 60.0279 396.319 67.3368 404.257 67.3368C408.069 67.3368 411.725 65.8202 414.42 63.1206C417.116 60.4209 418.63 56.7594 418.63 52.9416C418.63 49.1237 417.116 45.4622 414.42 42.7626C411.725 40.0629 408.069 38.5463 404.257 38.5463C396.19 38.4451 383.187 39.7517 389.885 52.9416Z" fill="#2F2E41"/>
<path d="M403.55 67.6172C410.513 67.6172 416.157 61.9638 416.157 54.99C416.157 48.0161 410.513 42.3627 403.55 42.3627C396.587 42.3627 390.943 48.0161 390.943 54.99C390.943 61.9638 396.587 67.6172 403.55 67.6172Z" fill="#A0616A"/>
<path d="M420.762 78.0069C419.949 77.1201 419.065 76.3016 418.119 75.5597C413.98 72.3111 408.793 70.7008 403.546 71.0355C403.336 71.0457 403.125 71.0611 402.915 71.0817C399.876 71.325 396.923 72.2138 394.254 73.6888C391.584 75.1639 389.259 77.1915 387.433 79.6366C385.579 82.1191 384.275 84.9696 383.609 87.9975C382.944 91.0253 382.931 94.1607 383.573 97.1937C383.712 97.8364 383.835 98.4841 383.953 99.1319H425.746L426.229 95.893C426.711 92.692 426.471 89.4233 425.525 86.3278C424.578 83.2323 422.951 80.3889 420.762 78.0069Z" fill="#3F3D56"/>
<path d="M427.163 81.3846C426.869 79.6952 425.992 78.1628 424.685 77.0543C423.378 75.9458 421.725 75.3314 420.013 75.3181C419.946 75.3181 419.874 75.3232 419.807 75.3232C419.237 75.3363 418.671 75.4156 418.119 75.5597C417.191 75.8066 416.321 76.2346 415.559 76.8191C414.797 77.4036 414.158 78.1331 413.678 78.9658C413.198 79.7984 412.887 80.7177 412.763 81.671C412.639 82.6243 412.704 83.5927 412.955 84.5207L416.902 99.1319H430.187L427.163 81.3846Z" fill="#3F3D56"/>
<path d="M397.93 77.5544C397.43 76.5695 396.712 75.7116 395.831 75.0456C395.207 74.5739 394.51 74.2091 393.767 73.9659C393.464 73.862 393.153 73.7795 392.838 73.7191C391.122 73.3938 389.345 73.6937 387.83 74.5648C386.314 75.4359 385.16 76.8208 384.574 78.4696L377.347 99.1319H391.062L398.059 83.9346C398.525 82.9319 398.756 81.8356 398.734 80.7296C398.711 79.6237 398.437 78.5375 397.93 77.5544Z" fill="#3F3D56"/>
<path d="M390.172 47.8537C393.052 49.8425 396.472 50.901 399.971 50.887C398.723 51.7537 397.302 52.3392 395.806 52.6031C400.458 53.6026 405.266 53.6296 409.929 52.6826C410.966 52.5161 411.966 52.1721 412.886 51.6655C413.344 51.4091 413.744 51.059 414.058 50.6378C414.372 50.2167 414.595 49.7339 414.711 49.221C415.021 47.4481 413.641 45.8373 412.208 44.7518C410.013 43.1151 407.483 41.9874 404.8 41.4504C402.116 40.9134 399.348 40.9804 396.693 41.6467C394.96 42.0954 393.224 42.8535 392.099 44.2474C390.973 45.6414 390.639 47.7905 391.712 49.2259L390.172 47.8537Z" fill="#2F2E41"/>
<path d="M323.88 205H137.12C134.602 204.997 132.188 203.994 130.408 202.211C128.628 200.428 127.626 198.011 127.623 195.489V81.2759C127.626 79.3556 128.388 77.5146 129.744 76.1567C131.099 74.7989 132.938 74.035 134.855 74.0328H326.038C327.983 74.035 329.849 74.8102 331.225 76.1882C332.601 77.5662 333.374 79.4346 333.377 81.3833V195.489C333.374 198.011 332.372 200.428 330.592 202.211C328.812 203.994 326.398 204.997 323.88 205Z" fill="white"/>
<path d="M323.88 205H137.12C134.602 204.997 132.188 203.994 130.408 202.211C128.628 200.428 127.626 198.011 127.623 195.489V81.2759C127.626 79.3556 128.388 77.5146 129.744 76.1567C131.099 74.7989 132.938 74.035 134.855 74.0328H326.038C327.983 74.035 329.849 74.8102 331.225 76.1882C332.601 77.5662 333.374 79.4346 333.377 81.3833V195.489C333.374 198.011 332.372 200.428 330.592 202.211C328.812 203.994 326.398 204.997 323.88 205ZM134.855 76.0893C133.482 76.0909 132.166 76.6379 131.195 77.6102C130.224 78.5826 129.678 79.9009 129.677 81.2759V195.489C129.679 197.465 130.464 199.36 131.859 200.758C133.254 202.155 135.146 202.941 137.12 202.944H323.88C325.854 202.941 327.746 202.155 329.141 200.758C330.536 199.36 331.321 197.465 331.323 195.489V81.3833C331.322 79.9798 330.764 78.6341 329.774 77.6416C328.783 76.6491 327.439 76.0909 326.038 76.0893H134.855Z" fill="#3F3D56"/>
<path d="M212.89 176.083H156.929C155.56 176.081 154.238 175.581 153.208 174.677C152.179 173.773 151.512 172.526 151.331 171.166C151.297 170.922 151.281 170.675 151.283 170.428V108.605C151.284 107.106 151.88 105.668 152.938 104.608C153.997 103.548 155.432 102.952 156.929 102.95H212.89C214.387 102.952 215.822 103.548 216.88 104.608C217.939 105.668 218.534 107.106 218.536 108.605V170.428C218.534 171.927 217.939 173.364 216.88 174.425C215.822 175.485 214.387 176.081 212.89 176.083ZM156.929 106.035C156.248 106.035 155.596 106.306 155.115 106.788C154.634 107.27 154.363 107.924 154.362 108.605V170.428C154.361 170.533 154.368 170.639 154.382 170.744C154.46 171.365 154.762 171.937 155.231 172.352C155.7 172.767 156.303 172.997 156.929 172.998H212.89C213.57 172.997 214.222 172.726 214.704 172.244C215.185 171.763 215.455 171.109 215.456 170.428V108.605C215.455 107.924 215.185 107.27 214.704 106.788C214.222 106.306 213.57 106.035 212.89 106.035H156.929Z" fill="#E6E6E6"/>
<path d="M184.097 114.252C180.454 112.555 175.981 111.998 172.274 113.576C168.567 115.153 166.04 119.196 167.239 122.774C167.782 124.396 169.02 125.991 168.538 127.629C168.167 128.89 166.872 129.723 165.6 130.315C164.329 130.907 162.938 131.405 162.018 132.403C161.099 133.401 160.907 135.12 162.056 135.895C162.434 136.15 162.907 136.271 163.274 136.54C163.587 136.794 163.813 137.14 163.92 137.529C164.027 137.918 164.01 138.331 163.872 138.71C163.566 139.473 163.061 140.139 162.409 140.638C161.104 141.765 159.381 143.054 159.786 144.653C159.936 145.08 160.187 145.465 160.517 145.775C160.848 146.084 161.248 146.309 161.684 146.431C162.589 146.692 163.528 146.816 164.469 146.799L202.95 148.013C204.22 148.109 205.498 148.037 206.749 147.801C207.358 147.689 207.937 147.454 208.45 147.108C208.964 146.763 209.4 146.315 209.733 145.793C210.47 144.427 209.986 142.744 209.076 141.468C208.166 140.193 206.878 139.186 205.814 138.015C204.75 136.844 203.879 135.381 204.067 133.867C204.217 132.655 205.015 131.608 205.588 130.507C206.161 129.406 206.493 128.03 205.751 127.016C204.706 125.589 202.196 125.718 201.007 124.388C200.11 123.384 200.283 121.939 200.194 120.644C199.979 117.531 197.827 114.59 194.763 113.224C193.205 112.555 191.51 112.265 189.819 112.381C188.127 112.496 186.487 113.013 185.034 113.888L184.097 114.252Z" fill="#2F2E41"/>
<path d="M185.52 147.715C192.483 147.715 198.128 142.061 198.128 135.087C198.128 128.113 192.483 122.46 185.52 122.46C178.558 122.46 172.913 128.113 172.913 135.087C172.913 142.061 178.558 147.715 185.52 147.715Z" fill="#A0616A"/>
<path d="M202.073 164.022C202.06 161.808 201.448 159.64 200.302 157.748C199.156 155.855 197.518 154.31 195.564 153.277C195.405 153.189 195.241 153.112 195.076 153.035C193.658 152.361 192.122 151.97 190.554 151.883L178.553 151.21C176.858 151.113 175.162 151.374 173.574 151.976C173.187 152.12 172.809 152.285 172.44 152.469C171.28 153.042 170.219 153.797 169.298 154.706C168.085 155.905 167.136 157.345 166.512 158.934C165.888 160.522 165.603 162.224 165.674 163.929L165.89 169.024L167.399 172.947H200.954C201.37 172.442 201.731 171.894 202.032 171.312C202.601 170.183 202.9 168.936 202.907 167.672C202.915 166.407 202.629 165.157 202.073 164.022Z" fill="#3F3D56"/>
<path d="M201.251 157.266C200.704 156.076 199.845 155.057 198.767 154.315C197.989 153.781 197.116 153.401 196.195 153.194C195.827 153.113 195.453 153.06 195.076 153.035C194.335 152.984 193.591 153.049 192.869 153.225C191.792 153.494 190.789 154.004 189.937 154.717C189.086 155.431 188.407 156.329 187.953 157.343C187.498 158.358 187.28 159.463 187.315 160.574C187.349 161.686 187.635 162.775 188.152 163.759L192.767 172.51L192.997 172.947H208.494L201.251 157.266Z" fill="#3F3D56"/>
<path d="M175.889 152.706C175.163 152.336 174.381 152.089 173.574 151.976C172.974 151.89 172.365 151.882 171.762 151.95C170.229 152.124 168.789 152.779 167.65 153.822C166.51 154.864 165.729 156.241 165.417 157.755L162.291 172.947H174.518L176.803 172.011L179.646 161.081C180.06 159.465 179.914 157.756 179.231 156.235C178.548 154.713 177.37 153.469 175.889 152.706Z" fill="#3F3D56"/>
<path d="M172.623 133.292C176.604 132.972 179.91 128.988 179.496 125.009C179.449 126.649 180.006 128.249 181.06 129.505C182.115 130.761 183.593 131.584 185.215 131.819C187.041 132.021 189.043 131.467 190.633 132.39C192.393 133.412 192.957 135.894 194.791 136.777C196.563 137.63 198.814 136.467 199.69 134.703C200.565 132.94 200.35 130.822 199.77 128.94C198.943 126.257 197.436 123.833 195.396 121.906C193.357 119.979 190.854 118.613 188.131 117.941C185.409 117.27 182.559 117.316 179.859 118.074C177.159 118.832 174.701 120.278 172.724 122.269C171.05 123.956 169.721 126.105 169.505 128.474C169.29 130.842 170.387 133.412 172.51 134.476L172.623 133.292Z" fill="#2F2E41"/>
<path d="M305.611 155.981H237.854C236.765 155.981 235.721 155.548 234.951 154.776C234.181 154.005 233.748 152.959 233.748 151.868C233.748 150.777 234.181 149.731 234.951 148.96C235.721 148.188 236.765 147.755 237.854 147.755H305.611C306.7 147.755 307.745 148.188 308.515 148.96C309.285 149.731 309.717 150.777 309.717 151.868C309.717 152.959 309.285 154.005 308.515 154.776C307.745 155.548 306.7 155.981 305.611 155.981Z" fill="#E6E6E6"/>
<path d="M274.813 138.501H237.854C236.765 138.501 235.721 138.068 234.951 137.296C234.181 136.525 233.748 135.479 233.748 134.388C233.748 133.297 234.181 132.251 234.951 131.48C235.721 130.708 236.765 130.275 237.854 130.275H274.813C275.902 130.275 276.946 130.708 277.716 131.48C278.486 132.251 278.919 133.297 278.919 134.388C278.919 135.479 278.486 136.525 277.716 137.296C276.946 138.068 275.902 138.501 274.813 138.501Z" fill="#F2C94C"/>
<path d="M294.643 168.538C291.056 168.544 287.619 169.976 285.085 172.518C282.551 175.061 281.128 178.507 281.128 182.099C281.128 185.691 282.551 189.137 285.085 191.679C287.619 194.222 291.056 195.654 294.643 195.66H294.643C298.23 195.654 301.667 194.222 304.201 191.679C306.735 189.137 308.158 185.691 308.158 182.099C308.158 178.507 306.735 175.061 304.201 172.519C301.667 169.976 298.23 168.544 294.643 168.538Z" fill="#F2C94C"/>
<path d="M293.358 187.731C293.002 187.732 292.655 187.616 292.37 187.402L292.352 187.389L288.629 184.536C288.281 184.268 288.054 183.873 287.997 183.438C287.939 183.002 288.057 182.562 288.324 182.214C288.591 181.865 288.985 181.637 289.419 181.579C289.854 181.521 290.294 181.639 290.642 181.905L293.054 183.758L298.753 176.311C298.885 176.138 299.05 175.993 299.238 175.884C299.426 175.776 299.634 175.705 299.849 175.676C300.065 175.648 300.283 175.662 300.493 175.718C300.703 175.775 300.9 175.872 301.072 176.004L301.073 176.004L301.037 176.054L301.074 176.004C301.421 176.272 301.649 176.667 301.706 177.103C301.764 177.538 301.646 177.979 301.379 178.328L294.676 187.083C294.521 187.285 294.322 187.448 294.093 187.56C293.865 187.672 293.614 187.73 293.36 187.729L293.358 187.731Z" fill="white"/>
</g>
<defs>
<clipPath id="clip0_5_489">
<rect width="461" height="205" fill="white"/>
</clipPath>
</defs>
</svg>
