<svg width="383" height="345" viewBox="0 0 383 345" fill="none" xmlns="http://www.w3.org/2000/svg">
<g clip-path="url(#clip0_3_93)">
<path d="M73.0425 235.531C72.5534 235.762 72.0049 235.838 71.4715 235.747C70.9381 235.656 70.4454 235.404 70.0603 235.025C69.6753 234.645 69.4163 234.156 69.3186 233.625C69.2209 233.093 69.2892 232.544 69.5141 232.053C69.4736 231.783 69.4444 231.59 69.4038 231.321C69.3596 231.277 69.3153 231.233 69.271 231.189C64.7954 226.786 57.2135 229.994 57.2281 236.269C57.2409 241.837 56.7183 247.639 58.1993 252.915C58.8549 255.247 59.9105 257.447 61.3191 259.418C52.4618 251.257 45.465 241.289 40.8029 230.191C39.636 227.405 38.6259 224.555 37.7774 221.656C37.0839 219.279 36.4965 216.876 36.0151 214.448C33.4176 201.269 33.9873 187.661 37.6775 174.744C40.5704 171.138 42.287 166.732 42.5959 162.122C42.7123 160.462 42.5876 158.794 42.2256 157.17C41.826 157.402 41.4108 157.616 40.9997 157.82C40.8709 157.882 40.7352 157.947 40.6064 158.009L40.5576 158.032C40.1018 158.246 39.5934 158.325 39.0939 158.258C38.5943 158.191 38.1248 157.981 37.7419 157.654C37.359 157.326 37.0791 156.895 36.9357 156.413C36.7923 155.93 36.7917 155.416 36.9339 154.933C37.0225 154.633 37.1113 154.332 37.2003 154.032C37.3327 153.57 37.4749 153.112 37.6073 152.65C37.6255 152.604 37.6411 152.557 37.6539 152.509C37.8076 151.981 37.9642 151.461 38.1179 150.933C37.1586 150.274 36.0598 149.845 34.9071 149.68C30.9304 149.144 27.0644 152.278 25.9643 156.128C24.8573 159.98 26.1151 164.212 28.4278 167.482C30.4056 170.283 33.087 172.489 35.8976 174.479C35.817 174.773 35.7266 175.063 35.6461 175.356C34.1809 180.746 33.2481 186.266 32.861 191.837C31.265 186.443 28.4096 181.504 24.5297 177.427C20.763 173.69 15.6545 171.352 10.9236 168.737C5.24108 165.596 -1.52789 170.827 0.306155 177.05C0.323916 177.11 0.341815 177.17 0.359857 177.23C0.928153 177.298 1.4934 177.385 2.05557 177.492C2.76338 177.63 3.41285 177.979 3.9189 178.492C4.42495 179.005 4.76397 179.659 4.89155 180.368C5.01912 181.077 4.92929 181.808 4.63383 182.465C4.33838 183.122 3.85108 183.675 3.23577 184.051L3.17276 184.089C4.02923 185.676 5.00526 187.196 6.0924 188.635C9.17109 192.635 13.0438 195.956 17.4679 198.391C21.8919 200.825 26.7719 202.321 31.8017 202.784C32.13 202.809 32.4513 202.838 32.7766 202.856C33.2051 210.407 34.6148 217.871 36.9704 225.058C38.3733 229.294 40.1168 233.408 42.1839 237.363L42.1022 237.226C39.3071 233.036 35.1498 229.938 30.3325 228.455C23.2043 226.316 15.0365 227.842 7.84749 226.732C4.38692 226.198 1.76652 229.849 3.58265 232.839C3.61163 232.887 3.64075 232.934 3.67 232.982C4.66863 232.973 5.66686 233.026 6.65889 233.141C7.22721 233.208 7.79245 233.295 8.3546 233.402C9.06242 233.541 9.71191 233.889 10.218 234.403C10.724 234.916 11.063 235.57 11.1906 236.279C11.3182 236.988 11.2284 237.719 10.9329 238.376C10.6374 239.033 10.1501 239.586 9.53482 239.961L9.47175 240C9.42616 240.027 9.38745 240.051 9.34192 240.079C12.255 242.947 15.6408 245.294 19.3509 247.015C23.9052 249.073 28.8323 250.179 33.83 250.267C38.8277 250.355 43.7908 249.423 48.4149 247.527L48.4218 247.524C51.9472 252.435 55.9741 256.967 60.4375 261.046L79.7726 252.976C79.7521 252.732 79.7218 252.485 79.6944 252.244C77.9517 253.104 76.1103 253.747 74.2111 254.159C74.91 251.802 75.6031 249.431 76.302 247.075C76.3203 247.028 76.3359 246.981 76.3487 246.933C76.6999 245.73 77.0609 244.53 77.412 243.327L77.4119 243.325C76.2966 240.551 74.8284 237.931 73.0434 235.532L73.0425 235.531ZM32.6992 201.271L32.7036 201.253L32.705 201.285L32.6992 201.271ZM44.5509 241.619L44.2282 241.315C44.1222 241.042 44.0092 240.772 43.8864 240.498C43.8545 240.422 43.8088 240.351 43.777 240.275C44.0392 240.727 44.2945 241.181 44.5636 241.63L44.5509 241.619Z" fill="#F2F2F2"/>
<path d="M250.471 102.82C249.751 105.722 249.407 108.704 249.449 111.693L249.45 111.695C250.238 112.67 251.035 113.638 251.823 114.613C251.854 114.652 251.886 114.69 251.921 114.725C253.476 116.631 255.03 118.551 256.585 120.457C254.674 120.808 252.726 120.924 250.787 120.802C250.854 121.034 250.922 121.274 250.997 121.507H271.953C274.496 116.024 276.462 110.292 277.819 104.403H277.826C282.825 104.371 287.764 103.32 292.341 101.314C296.918 99.3083 301.037 96.3898 304.445 92.7375C307.204 89.7203 309.422 86.2514 311.002 82.4826C310.949 82.4751 310.904 82.4676 310.852 82.46L310.779 82.4488C310.066 82.3391 309.403 82.0168 308.877 81.5243C308.35 81.0318 307.985 80.3919 307.829 79.6886C307.673 78.9854 307.734 78.2514 308.002 77.5829C308.271 76.9145 308.736 76.3427 309.336 75.9425C309.813 75.6275 310.3 75.3294 310.799 75.0483C311.67 74.5602 312.571 74.1267 313.496 73.7505C313.504 73.6953 313.513 73.6401 313.521 73.5849C314.042 70.1264 310.215 67.767 307.228 69.5928C301.024 73.3857 292.898 75.1233 287.147 79.8419C283.275 83.0656 280.635 87.5251 279.674 92.4675L279.651 92.625C280.032 88.1804 280.052 83.7122 279.711 79.2643C279.11 71.7252 277.529 64.2961 275.01 57.1641C275.302 57.0215 275.588 56.8715 275.881 56.7215C280.343 54.3574 284.268 51.0981 287.41 47.148C290.552 43.1978 292.843 38.6419 294.14 33.7659C294.587 32.0193 294.901 30.2413 295.079 28.4471L295.006 28.4359C294.293 28.3261 293.63 28.0039 293.104 27.5114C292.577 27.0188 292.212 26.379 292.056 25.6757C291.9 24.9724 291.961 24.2385 292.229 23.57C292.498 22.9016 292.963 22.3298 293.563 21.9296C294.04 21.6146 294.527 21.3165 295.026 21.0354C295.02 20.9729 295.013 20.9105 295.006 20.8481C294.296 14.4004 286.031 12.1806 282 17.2669C278.645 21.5015 274.834 25.6269 272.801 30.5252C270.796 35.7811 270.068 41.4375 270.677 47.0292C268.17 42.0379 265.178 37.3041 261.745 32.8957C261.558 32.6557 261.362 32.4231 261.174 32.183C263 29.2649 264.622 26.1966 265.366 22.8508C266.237 18.9424 265.764 14.5538 263.255 11.4256C260.754 8.29733 255.977 6.89452 252.514 8.92C251.515 9.51638 250.666 10.3353 250.036 11.313C250.381 11.7406 250.727 12.1607 251.072 12.5883C251.103 12.6277 251.135 12.6653 251.17 12.7009C251.47 13.076 251.778 13.4435 252.079 13.8187C252.277 14.0615 252.475 14.3045 252.673 14.5478C252.99 14.9386 253.188 15.4129 253.242 15.9134C253.296 16.414 253.204 16.9194 252.977 17.369C252.75 17.8185 252.398 18.193 251.963 18.4473C251.528 18.7015 251.029 18.8248 250.525 18.8023L250.471 18.7998C250.329 18.7923 250.178 18.7848 250.036 18.7773C249.577 18.7473 249.112 18.7098 248.654 18.6498C248.947 20.2876 249.475 21.8745 250.223 23.361C252.289 27.4963 255.573 30.8999 259.635 33.1133C268.026 43.6104 273.805 55.946 276.497 69.1069C276.992 71.53 277.378 73.9731 277.653 76.4362C277.99 79.4377 278.158 82.4556 278.157 85.4759C278.14 97.5117 275.532 109.403 270.51 120.344C271.049 117.983 271.174 115.546 270.879 113.143C270.208 107.704 267.486 102.552 265.348 97.4092C262.939 91.6144 254.705 91.5745 252.276 97.3607C252.251 97.4182 252.228 97.4756 252.204 97.5331C252.27 97.7973 252.318 97.987 252.385 98.2511C252.782 98.618 253.057 99.098 253.172 99.626C253.287 100.154 253.237 100.705 253.028 101.203C252.819 101.702 252.462 102.124 252.005 102.414C251.548 102.703 251.012 102.844 250.472 102.82L250.471 102.82ZM274.469 55.6862L274.458 55.6563L274.469 55.6712V55.6862ZM279.103 97.4787C279.178 96.9611 279.238 96.4434 279.306 95.9258C279.306 96.0084 279.291 96.0908 279.291 96.1734C279.283 96.4735 279.283 96.7661 279.291 97.0587L279.111 97.4637L279.103 97.4787Z" fill="#F2F2F2"/>
<path d="M229.359 231.793H165.248C164.341 231.794 163.472 232.155 162.832 232.797C162.191 233.438 161.832 234.307 161.833 235.213V336.366H232.783V235.213C232.784 234.764 232.695 234.319 232.523 233.904C232.351 233.489 232.099 233.112 231.781 232.794C231.463 232.477 231.085 232.225 230.67 232.053C230.254 231.881 229.809 231.793 229.359 231.793ZM197.519 289.267C195.514 289.257 193.594 288.458 192.177 287.042C190.759 285.626 189.958 283.708 189.949 281.706V270.038C189.949 268.033 190.747 266.11 192.166 264.692C193.586 263.274 195.512 262.477 197.519 262.477C199.527 262.477 201.453 263.274 202.872 264.692C204.292 266.11 205.09 268.033 205.09 270.038V281.706C205.08 283.708 204.28 285.626 202.862 287.042C201.444 288.458 199.524 289.257 197.519 289.267Z" fill="#E6E6E6"/>
<path d="M161.613 333.13V342.89C161.614 343.395 161.815 343.88 162.173 344.238C162.531 344.595 163.017 344.796 163.523 344.797H231.093C231.599 344.795 232.083 344.593 232.441 344.236C232.799 343.879 233.001 343.395 233.003 342.89V333.13L161.613 333.13Z" fill="#CCCCCC"/>
<path d="M335.521 73.9329H61.4721C59.1176 73.9366 56.8606 74.8724 55.1957 76.5353C53.5308 78.1981 52.5938 80.4524 52.5901 82.804V267.508C52.5924 269.86 53.5289 272.115 55.1941 273.778C56.8593 275.441 59.1172 276.377 61.4721 276.379H335.521C337.876 276.377 340.134 275.441 341.799 273.778C343.464 272.115 344.401 269.86 344.403 267.508V82.804C344.399 80.4524 343.462 78.1981 341.797 76.5353C340.132 74.8724 337.875 73.9366 335.521 73.9329Z" fill="#E6E6E6"/>
<path d="M333.232 80.3379H63.7627C62.5016 80.3409 61.2933 80.8433 60.4026 81.735C59.5119 82.6266 59.0117 83.8347 59.0117 85.0942V265.218C59.0131 266.476 59.5141 267.682 60.4048 268.572C61.2955 269.462 62.5031 269.962 63.7627 269.963H333.232C334.492 269.962 335.699 269.462 336.59 268.572C337.481 267.682 337.982 266.476 337.983 265.218V85.0942C337.983 83.8347 337.483 82.6266 336.592 81.7349C335.702 80.8433 334.493 80.3409 333.232 80.3379Z" fill="white"/>
<path d="M93.319 259.638C93.3249 263.163 92.6961 266.661 91.4624 269.965H63.7618C62.5026 269.962 61.2957 269.462 60.4053 268.573C59.515 267.683 59.0139 266.478 59.0117 265.22V230.422C60.5594 230.172 62.1248 230.047 63.6926 230.047C67.5833 230.047 71.4359 230.812 75.0304 232.299C78.625 233.786 81.8911 235.966 84.6422 238.714C87.3933 241.461 89.5756 244.723 91.0643 248.314C92.5531 251.904 93.3193 255.752 93.319 259.638Z" fill="#F2C94C"/>
<path d="M337.983 85.0942V241.875C317.249 247.911 295.111 247.036 274.92 239.382C254.728 231.727 237.584 217.711 226.081 199.454C214.579 181.198 209.345 159.695 211.173 138.202C213 116.709 221.789 96.3959 236.209 80.3379H333.232C334.493 80.3409 335.702 80.8433 336.592 81.735C337.483 82.6266 337.983 83.8347 337.983 85.0942Z" fill="#E6E6E6"/>
<path d="M319.687 105.158H67.544C67.2818 105.152 67.0322 105.044 66.8487 104.857C66.6652 104.67 66.5624 104.418 66.5624 104.156C66.5624 103.894 66.6652 103.643 66.8487 103.456C67.0322 103.268 67.2818 103.16 67.544 103.155H319.687C319.95 103.16 320.199 103.268 320.383 103.456C320.566 103.643 320.669 103.894 320.669 104.156C320.669 104.418 320.566 104.67 320.383 104.857C320.199 105.044 319.95 105.152 319.687 105.158Z" fill="#CACACA"/>
<path d="M84.7077 98.0414C87.9531 98.0414 90.5841 95.3551 90.5841 92.0415C90.5841 88.7278 87.9531 86.0415 84.7077 86.0415C81.4623 86.0415 78.8314 88.7278 78.8314 92.0415C78.8314 95.3551 81.4623 98.0414 84.7077 98.0414Z" fill="#3F3D56"/>
<path d="M105.008 98.0414C108.253 98.0414 110.884 95.3551 110.884 92.0415C110.884 88.7278 108.253 86.0415 105.008 86.0415C101.762 86.0415 99.1314 88.7278 99.1314 92.0415C99.1314 95.3551 101.762 98.0414 105.008 98.0414Z" fill="#3F3D56"/>
<path d="M125.308 98.0414C128.553 98.0414 131.184 95.3551 131.184 92.0415C131.184 88.7278 128.553 86.0415 125.308 86.0415C122.062 86.0415 119.431 88.7278 119.431 92.0415C119.431 95.3551 122.062 98.0414 125.308 98.0414Z" fill="#3F3D56"/>
<path d="M307.465 87.5286H293.045C292.759 87.5342 292.487 87.6516 292.287 87.8555C292.087 88.0594 291.975 88.3336 291.975 88.6191C291.975 88.9046 292.087 89.1788 292.287 89.3827C292.487 89.5866 292.759 89.7039 293.045 89.7096H307.465C307.751 89.7039 308.023 89.5866 308.223 89.3827C308.423 89.1788 308.535 88.9046 308.535 88.6191C308.535 88.3336 308.423 88.0594 308.223 87.8555C308.023 87.6516 307.751 87.5342 307.465 87.5286Z" fill="#3F3D56"/>
<path d="M307.465 91.6221H293.045C292.759 91.6278 292.487 91.7452 292.287 91.949C292.087 92.1529 291.975 92.4271 291.975 92.7126C291.975 92.9981 292.087 93.2723 292.287 93.4762C292.487 93.68 292.759 93.7974 293.045 93.8031H307.465C307.751 93.7974 308.023 93.68 308.223 93.4762C308.423 93.2723 308.535 92.9981 308.535 92.7126C308.535 92.4271 308.423 92.1529 308.223 91.949C308.023 91.7452 307.751 91.6278 307.465 91.6221Z" fill="#3F3D56"/>
<path d="M307.465 95.7102H293.045C292.759 95.7159 292.487 95.8333 292.287 96.0372C292.087 96.2411 291.975 96.5152 291.975 96.8007C291.975 97.0863 292.087 97.3604 292.287 97.5643C292.487 97.7682 292.759 97.8856 293.045 97.8913H307.465C307.751 97.8856 308.023 97.7682 308.223 97.5643C308.423 97.3604 308.535 97.0863 308.535 96.8007C308.535 96.5152 308.423 96.2411 308.223 96.0372C308.023 95.8333 307.751 95.7159 307.465 95.7102Z" fill="#3F3D56"/>
<path d="M173.153 35.9099C174.041 34.0399 169.927 30.2337 163.963 27.4086C157.999 24.5834 152.444 23.8091 151.556 25.679C150.668 27.549 154.783 31.3552 160.747 34.1804C166.711 37.0055 172.265 37.7799 173.153 35.9099Z" fill="#2F2E41"/>
<path d="M222.375 55.1703C223.963 53.8417 221.816 48.6668 217.579 43.612C213.341 38.5571 208.618 35.5364 207.029 36.865C205.441 38.1937 207.588 43.3685 211.825 48.4234C216.063 53.4782 220.786 56.4989 222.375 55.1703Z" fill="#2F2E41"/>
<path d="M189.278 65.7466C202.479 65.7466 213.181 55.0577 213.181 41.8723C213.181 28.6869 202.479 17.998 189.278 17.998C176.076 17.998 165.375 28.6869 165.375 41.8723C165.375 55.0577 176.076 65.7466 189.278 65.7466Z" fill="#2F2E41"/>
<path d="M199.395 60.6091H192.134V73.604H199.395V60.6091Z" fill="#2F2E41"/>
<path d="M184.872 60.6091H177.61V73.604H184.872V60.6091Z" fill="#2F2E41"/>
<path d="M193.344 76.0216C196.686 76.0216 199.395 75.0069 199.395 73.7551C199.395 72.5033 196.686 71.4885 193.344 71.4885C190.002 71.4885 187.292 72.5033 187.292 73.7551C187.292 75.0069 190.002 76.0216 193.344 76.0216Z" fill="#2F2E41"/>
<path d="M178.82 75.7194C182.162 75.7194 184.872 74.7046 184.872 73.4528C184.872 72.201 182.162 71.1863 178.82 71.1863C175.478 71.1863 172.769 72.201 172.769 73.4528C172.769 74.7046 175.478 75.7194 178.82 75.7194Z" fill="#2F2E41"/>
<path d="M181.772 11.8617C183.907 3.27654 193.328 -1.77566 202.816 0.577327C212.304 2.93031 218.265 11.7975 216.13 20.3827C213.996 28.9679 206.915 28.9956 197.427 26.6426C187.939 24.2896 179.638 20.4469 181.772 11.8617Z" fill="#E6E6E6"/>
<path d="M185.704 44.7943C190.106 44.7943 193.674 41.2307 193.674 36.8347C193.674 32.4387 190.106 28.875 185.704 28.875C181.303 28.875 177.735 32.4387 177.735 36.8347C177.735 41.2307 181.303 44.7943 185.704 44.7943Z" fill="white"/>
<path d="M185.204 42.7327C186.671 42.7327 187.86 41.5448 187.86 40.0795C187.86 38.6142 186.671 37.4263 185.204 37.4263C183.737 37.4263 182.548 38.6142 182.548 40.0795C182.548 41.5448 183.737 42.7327 185.204 42.7327Z" fill="#3F3D56"/>
<path d="M195.831 51.2457C196.356 54.129 189.315 59.0644 186.428 59.5893C185.042 59.8413 183.612 59.533 182.453 58.7322C181.295 57.9313 180.502 56.7036 180.25 55.319L180.248 55.3087C179.725 52.4249 181.957 51.4045 184.845 50.8824C187.732 50.3604 195.308 48.3619 195.831 51.2457Z" fill="white"/>
<path d="M280.503 218.486C284.525 213.259 286.454 207.999 284.812 206.738C283.169 205.477 278.576 208.691 274.553 213.918C270.531 219.145 268.601 224.405 270.244 225.667C271.887 226.928 276.48 223.713 280.503 218.486Z" fill="#2F2E41"/>
<path d="M302.397 235.931C315.599 235.931 326.3 225.242 326.3 212.057C326.3 198.871 315.599 188.183 302.397 188.183C289.196 188.183 278.494 198.871 278.494 212.057C278.494 225.242 289.196 235.931 302.397 235.931Z" fill="#2F2E41"/>
<path d="M313.29 230.794H306.028V243.789H313.29V230.794Z" fill="#2F2E41"/>
<path d="M298.766 230.794H291.504V243.789H298.766V230.794Z" fill="#2F2E41"/>
<path d="M307.238 246.206C310.58 246.206 313.29 245.191 313.29 243.94C313.29 242.688 310.58 241.673 307.238 241.673C303.896 241.673 301.187 242.688 301.187 243.94C301.187 245.191 303.896 246.206 307.238 246.206Z" fill="#2F2E41"/>
<path d="M292.715 245.904C296.057 245.904 298.766 244.889 298.766 243.637C298.766 242.386 296.057 241.371 292.715 241.371C289.372 241.371 286.663 242.386 286.663 243.637C286.663 244.889 289.372 245.904 292.715 245.904Z" fill="#2F2E41"/>
<path d="M301.792 214.172C306.304 214.172 309.961 210.519 309.961 206.013C309.961 201.506 306.304 197.853 301.792 197.853C297.28 197.853 293.622 201.506 293.622 206.013C293.622 210.519 297.28 214.172 301.792 214.172Z" fill="white"/>
<path d="M301.237 212.613C302.741 212.613 303.96 211.395 303.96 209.893C303.96 208.391 302.741 207.173 301.237 207.173C299.733 207.173 298.514 208.391 298.514 209.893C298.514 211.395 299.733 212.613 301.237 212.613Z" fill="#3F3D56"/>
<path d="M325.584 189.855C327.514 181.221 321.344 172.498 311.804 170.37C302.263 168.242 292.964 173.516 291.034 182.149C289.104 190.782 295.427 193.967 304.968 196.094C314.508 198.222 323.654 198.488 325.584 189.855Z" fill="#F2C94C"/>
<path d="M330.65 232.785C332.515 231.882 331.691 226.341 328.811 220.409C325.931 214.477 322.084 210.4 320.22 211.304C318.355 212.207 319.179 217.748 322.059 223.679C324.939 229.611 328.786 233.688 330.65 232.785Z" fill="#2F2E41"/>
<path d="M314.138 220.67C314.138 223.006 308.114 227.62 301.43 227.62C294.746 227.62 288.479 221.042 288.479 218.705C288.479 216.369 294.746 219.159 301.43 219.159C308.114 219.159 314.138 218.333 314.138 220.67Z" fill="white"/>
<path d="M284.477 316.312C297.678 316.312 308.38 305.623 308.38 292.437C308.38 279.252 297.678 268.563 284.477 268.563C271.275 268.563 260.573 279.252 260.573 292.437C260.573 305.623 271.275 316.312 284.477 316.312Z" fill="#2F2E41"/>
<path d="M280.846 311.174H273.584V324.169H280.846V311.174Z" fill="#2F2E41"/>
<path d="M295.369 311.174H288.108V324.169H295.369V311.174Z" fill="#2F2E41"/>
<path d="M284.553 328.564C285.088 327.432 283.072 325.359 280.049 323.933C277.027 322.508 274.143 322.27 273.608 323.402C273.073 324.534 275.089 326.607 278.111 328.032C281.134 329.458 284.017 329.696 284.553 328.564Z" fill="#2F2E41"/>
<path d="M299.212 327.951C299.683 326.791 297.554 324.834 294.456 323.58C291.359 322.327 288.466 322.251 287.996 323.411C287.525 324.571 289.654 326.528 292.752 327.781C295.849 329.035 298.742 329.111 299.212 327.951Z" fill="#2F2E41"/>
<path d="M261.29 270.235C259.36 261.602 265.529 252.878 275.07 250.75C284.611 248.623 293.91 253.896 295.84 262.53C297.77 271.163 291.447 274.347 281.906 276.475C272.365 278.603 263.22 278.868 261.29 270.235Z" fill="#F2C94C"/>
<path d="M312.891 282.638C315.277 275.722 315.45 269.509 313.276 268.761C311.102 268.013 307.406 273.013 305.019 279.928C302.633 286.844 302.461 293.057 304.635 293.805C306.808 294.553 310.505 289.553 312.891 282.638Z" fill="#2F2E41"/>
<path d="M265.21 290.098C266.836 288.475 263.958 282.964 258.781 277.79C253.605 272.616 248.09 269.737 246.463 271.36C244.837 272.983 247.715 278.493 252.892 283.668C258.068 288.842 263.583 291.721 265.21 290.098Z" fill="#2F2E41"/>
<path d="M103.582 334.725C116.783 334.725 127.485 324.036 127.485 310.851C127.485 297.665 116.783 286.977 103.582 286.977C90.3805 286.977 79.6786 297.665 79.6786 310.851C79.6786 324.036 90.3805 334.725 103.582 334.725Z" fill="#2F2E41"/>
<path d="M99.9511 329.587H92.6893V342.582H99.9511V329.587Z" fill="#2F2E41"/>
<path d="M114.475 329.587H107.213V342.582H114.475V329.587Z" fill="#2F2E41"/>
<path d="M98.7408 345C102.083 345 104.792 343.985 104.792 342.734C104.792 341.482 102.083 340.467 98.7408 340.467C95.3986 340.467 92.6893 341.482 92.6893 342.734C92.6893 343.985 95.3986 345 98.7408 345Z" fill="#2F2E41"/>
<path d="M113.264 344.698C116.607 344.698 119.316 343.683 119.316 342.431C119.316 341.18 116.607 340.165 113.264 340.165C109.922 340.165 107.213 341.18 107.213 342.431C107.213 343.683 109.922 344.698 113.264 344.698Z" fill="#2F2E41"/>
<path d="M80.3949 288.648C78.4648 280.015 84.6345 271.291 94.1754 269.164C103.716 267.036 113.015 272.31 114.945 280.943C116.875 289.576 110.552 292.76 101.012 294.888C91.4707 297.016 82.325 297.282 80.3949 288.648Z" fill="#3F3D56"/>
<path d="M134.232 316.977C135.307 314.947 130.931 310.529 124.457 307.108C117.983 303.688 111.864 302.561 110.788 304.591C109.713 306.62 114.09 311.039 120.564 314.459C127.038 317.879 133.157 319.007 134.232 316.977Z" fill="#2F2E41"/>
<path d="M100.266 190.862C106.23 188.037 110.344 184.231 109.456 182.361C108.568 180.491 103.014 181.265 97.0499 184.09C91.086 186.915 86.9711 190.721 87.8591 192.591C88.747 194.461 94.3016 193.687 100.266 190.862Z" fill="#2F2E41"/>
<path d="M49.1873 205.105C53.4247 200.05 55.5719 194.875 53.983 193.547C52.3942 192.218 47.6711 195.239 43.4337 200.294C39.1963 205.349 37.0491 210.523 38.6379 211.852C40.2267 213.181 44.9498 210.16 49.1873 205.105Z" fill="#2F2E41"/>
<path d="M71.7346 222.428C84.936 222.428 95.638 211.739 95.638 198.554C95.638 185.369 84.936 174.68 71.7346 174.68C58.5331 174.68 47.8312 185.369 47.8312 198.554C47.8312 211.739 58.5331 222.428 71.7346 222.428Z" fill="#2F2E41"/>
<path d="M68.8789 217.291H61.6171V230.286H68.8789V217.291Z" fill="#2F2E41"/>
<path d="M83.4025 217.291H76.1407V230.286H83.4025V217.291Z" fill="#2F2E41"/>
<path d="M67.6686 232.703C71.0108 232.703 73.7201 231.688 73.7201 230.437C73.7201 229.185 71.0108 228.17 67.6686 228.17C64.3265 228.17 61.6171 229.185 61.6171 230.437C61.6171 231.688 64.3265 232.703 67.6686 232.703Z" fill="#2F2E41"/>
<path d="M82.1922 232.401C85.5344 232.401 88.2437 231.386 88.2437 230.134C88.2437 228.883 85.5344 227.868 82.1922 227.868C78.8501 227.868 76.1407 228.883 76.1407 230.134C76.1407 231.386 78.8501 232.401 82.1922 232.401Z" fill="#2F2E41"/>
<path d="M79.2401 168.543C77.1057 159.958 67.6842 154.906 58.1965 157.259C48.7088 159.612 42.7478 168.479 44.8822 177.064C47.0166 185.649 54.0978 185.677 63.5854 183.324C73.0731 180.971 81.3745 177.129 79.2401 168.543Z" fill="#F2C94C"/>
<path d="M75.3081 201.476C79.7095 201.476 83.2775 197.912 83.2775 193.516C83.2775 189.12 79.7095 185.557 75.3081 185.557C70.9068 185.557 67.3387 189.12 67.3387 193.516C67.3387 197.912 70.9068 201.476 75.3081 201.476Z" fill="white"/>
<path d="M75.8084 199.414C77.2755 199.414 78.4649 198.226 78.4649 196.761C78.4649 195.296 77.2755 194.108 75.8084 194.108C74.3413 194.108 73.1519 195.296 73.1519 196.761C73.1519 198.226 74.3413 199.414 75.8084 199.414Z" fill="#3F3D56"/>
<path d="M70.3088 210.1C70.1839 210.785 70.1953 211.489 70.3426 212.17C70.4898 212.851 70.7699 213.497 71.1669 214.07C71.564 214.643 72.0701 215.132 72.6565 215.51C73.2428 215.887 73.8979 216.146 74.5843 216.271C75.2707 216.396 75.975 216.384 76.657 216.237C77.339 216.09 77.9854 215.81 78.5591 215.414C79.1328 215.017 79.6227 214.512 80.0009 213.926C80.379 213.34 80.6379 212.686 80.7629 212.001L80.7648 211.99C81.2875 209.107 79.0551 208.086 76.1678 207.564C73.2804 207.042 70.8315 207.216 70.3088 210.1Z" fill="white"/>
<path d="M382.339 344.794L12.277 344.964C12.1901 344.965 12.1039 344.948 12.0235 344.915C11.9431 344.882 11.8701 344.833 11.8085 344.772C11.7469 344.71 11.6981 344.638 11.6647 344.557C11.6314 344.477 11.6143 344.391 11.6143 344.304C11.6143 344.217 11.6314 344.131 11.6647 344.051C11.6981 343.971 11.7469 343.898 11.8085 343.837C11.8701 343.776 11.9431 343.727 12.0235 343.694C12.1039 343.661 12.1901 343.644 12.277 343.644L382.339 343.474C382.514 343.474 382.682 343.544 382.805 343.668C382.929 343.792 382.998 343.959 382.998 344.134C382.998 344.309 382.929 344.476 382.805 344.6C382.682 344.724 382.514 344.793 382.339 344.794Z" fill="#CACACA"/>
</g>
<defs>
<clipPath id="clip0_3_93">
<rect width="383" height="345" fill="white"/>
</clipPath>
</defs>
</svg>
