<svg width="501" height="214" viewBox="0 0 501 214" fill="none" xmlns="http://www.w3.org/2000/svg">
<g clip-path="url(#clip0_3_234)">
<path d="M422.753 206.327H175.882C175.701 206.327 175.527 206.255 175.399 206.126C175.27 205.998 175.198 205.824 175.198 205.642V43.9157C175.199 43.7343 175.271 43.5605 175.399 43.4324C175.527 43.3043 175.701 43.2324 175.882 43.2324C176.063 43.2324 176.237 43.3043 176.365 43.4324C176.493 43.5605 176.565 43.7343 176.566 43.9157V204.956H422.753C422.934 204.957 423.108 205.029 423.236 205.158C423.363 205.286 423.435 205.46 423.435 205.642C423.435 205.823 423.363 205.997 423.236 206.126C423.108 206.254 422.934 206.327 422.753 206.327Z" fill="#3F3D56"/>
<path d="M422.753 174.119H175.882C175.701 174.119 175.528 174.046 175.4 173.918C175.272 173.789 175.2 173.615 175.2 173.434C175.2 173.252 175.272 173.078 175.4 172.95C175.528 172.822 175.701 172.749 175.882 172.749H422.753C422.934 172.749 423.108 172.822 423.236 172.95C423.363 173.078 423.435 173.252 423.435 173.434C423.435 173.615 423.363 173.789 423.236 173.918C423.108 174.046 422.934 174.119 422.753 174.119Z" fill="#3F3D56"/>
<path d="M423.095 148.078H176.224C176.043 148.078 175.869 148.006 175.74 147.878C175.612 147.749 175.54 147.575 175.54 147.393C175.54 147.211 175.612 147.037 175.74 146.908C175.869 146.78 176.043 146.708 176.224 146.708H423.095C423.276 146.708 423.45 146.781 423.578 146.909C423.705 147.038 423.777 147.212 423.777 147.393C423.777 147.574 423.705 147.748 423.578 147.877C423.45 148.005 423.276 148.078 423.095 148.078Z" fill="#3F3D56"/>
<path d="M423.095 122.038H176.224C176.043 122.037 175.87 121.965 175.742 121.836C175.614 121.708 175.542 121.534 175.542 121.353C175.542 121.171 175.614 120.997 175.742 120.869C175.87 120.74 176.043 120.668 176.224 120.667H423.095C423.276 120.668 423.45 120.74 423.578 120.869C423.705 120.997 423.777 121.171 423.777 121.353C423.777 121.534 423.705 121.708 423.578 121.836C423.45 121.965 423.276 122.037 423.095 122.038Z" fill="#3F3D56"/>
<path d="M423.095 95.997H176.224C176.043 95.997 175.869 95.9248 175.74 95.7963C175.612 95.6678 175.54 95.4935 175.54 95.3117C175.54 95.13 175.612 94.9557 175.74 94.8272C175.869 94.6987 176.043 94.6265 176.224 94.6265H423.095C423.277 94.6265 423.451 94.6987 423.579 94.8272C423.707 94.9557 423.779 95.13 423.779 95.3117C423.779 95.4935 423.707 95.6678 423.579 95.7963C423.451 95.9248 423.277 95.997 423.095 95.997Z" fill="#3F3D56"/>
<path d="M423.095 69.9565H176.224C176.043 69.9565 175.869 69.8843 175.74 69.7558C175.612 69.6273 175.54 69.453 175.54 69.2712C175.54 69.0895 175.612 68.9152 175.74 68.7866C175.869 68.6581 176.043 68.5859 176.224 68.5859H423.095C423.277 68.5859 423.451 68.6581 423.579 68.7866C423.707 68.9152 423.779 69.0895 423.779 69.2712C423.779 69.453 423.707 69.6273 423.579 69.7558C423.451 69.8843 423.277 69.9565 423.095 69.9565Z" fill="#3F3D56"/>
<path d="M423.095 43.9157H176.224C176.043 43.9152 175.87 43.8428 175.742 43.7143C175.614 43.5859 175.542 43.4119 175.542 43.2305C175.542 43.0491 175.614 42.8751 175.742 42.7466C175.87 42.6181 176.043 42.5457 176.224 42.5452H423.095C423.276 42.5457 423.45 42.6181 423.578 42.7466C423.705 42.8751 423.777 43.0491 423.777 43.2305C423.777 43.4119 423.705 43.5859 423.578 43.7143C423.45 43.8428 423.276 43.9152 423.095 43.9157Z" fill="#3F3D56"/>
<path d="M200.105 205.17H191.484C190.424 205.169 189.408 204.746 188.658 203.995C187.909 203.244 187.487 202.226 187.486 201.163V177.338C187.487 176.276 187.909 175.257 188.658 174.506C189.408 173.755 190.424 173.332 191.484 173.331H200.105C201.165 173.332 202.181 173.755 202.931 174.506C203.68 175.257 204.102 176.276 204.103 177.338V201.164C204.102 202.226 203.68 203.244 202.931 203.995C202.181 204.746 201.165 205.169 200.105 205.17Z" fill="#3F3D56"/>
<path d="M236.007 205.17H227.387C226.327 205.169 225.31 204.746 224.561 203.995C223.811 203.244 223.39 202.226 223.388 201.163V157.164C223.39 156.102 223.811 155.084 224.561 154.332C225.31 153.581 226.327 153.159 227.387 153.158H236.007C237.067 153.159 238.084 153.581 238.833 154.332C239.583 155.084 240.004 156.102 240.005 157.164V201.164C240.004 202.226 239.583 203.244 238.833 203.995C238.084 204.746 237.067 205.169 236.007 205.17Z" fill="#3F3D56"/>
<path d="M307.812 205.17H299.191C298.131 205.169 297.115 204.746 296.365 203.995C295.616 203.244 295.194 202.226 295.193 201.163V109.695C295.194 108.632 295.616 107.614 296.365 106.863C297.115 106.112 298.131 105.689 299.191 105.688H307.812C308.872 105.689 309.888 106.112 310.638 106.863C311.387 107.614 311.809 108.632 311.81 109.695V201.163C311.809 202.226 311.387 203.244 310.638 203.995C309.888 204.746 308.872 205.169 307.812 205.17Z" fill="#E6E6E6"/>
<path d="M271.568 205.17H262.947C261.887 205.169 260.871 204.746 260.121 203.995C259.372 203.244 258.95 202.226 258.949 201.164V141.018C258.95 139.956 259.372 138.937 260.121 138.186C260.871 137.435 261.887 137.013 262.947 137.011H271.568C272.628 137.013 273.644 137.435 274.393 138.186C275.143 138.937 275.565 139.956 275.566 141.018V201.164C275.565 202.226 275.143 203.244 274.393 203.995C273.644 204.746 272.628 205.169 271.568 205.17Z" fill="#3F3D56"/>
<path d="M343.714 205.17H335.093C334.033 205.169 333.017 204.746 332.268 203.995C331.518 203.244 331.096 202.226 331.095 201.163V85.6212C331.096 84.559 331.518 83.5406 332.268 82.7895C333.017 82.0384 334.033 81.6159 335.093 81.6147H343.714C344.774 81.6159 345.791 82.0384 346.54 82.7895C347.29 83.5406 347.711 84.559 347.712 85.6212V201.163C347.711 202.226 347.29 203.244 346.54 203.995C345.791 204.746 344.774 205.169 343.714 205.17Z" fill="#3F3D56"/>
<path d="M379.617 205.17H370.996C369.936 205.169 368.92 204.746 368.17 203.995C367.42 203.244 366.999 202.226 366.998 201.163V109.695C366.999 108.632 367.42 107.614 368.17 106.863C368.92 106.112 369.936 105.689 370.996 105.688H379.617C380.677 105.689 381.693 106.112 382.443 106.863C383.192 107.614 383.614 108.632 383.615 109.695V201.163C383.614 202.226 383.192 203.244 382.443 203.995C381.693 204.746 380.677 205.169 379.617 205.17Z" fill="#3F3D56"/>
<path d="M415.519 205.17H406.898C405.838 205.169 404.822 204.746 404.072 203.995C403.323 203.244 402.901 202.226 402.9 201.163V46.4491C402.901 45.3869 403.323 44.3685 404.072 43.6174C404.822 42.8663 405.838 42.4438 406.898 42.4426H415.519C416.579 42.4438 417.595 42.8663 418.345 43.6174C419.094 44.3685 419.516 45.3869 419.517 46.4491V201.163C419.516 202.226 419.094 203.244 418.345 203.995C417.595 204.746 416.579 205.169 415.519 205.17Z" fill="#E6E6E6"/>
<path d="M301.145 69.5994C314.899 69.5994 326.048 58.4266 326.048 44.6442C326.048 30.8618 314.899 19.689 301.145 19.689C287.391 19.689 276.242 30.8618 276.242 44.6442C276.242 58.4266 287.391 69.5994 301.145 69.5994Z" fill="#2F2E41"/>
<path d="M291.675 61.0398L279.555 67.1221L282.943 73.9009L295.063 67.8187L291.675 61.0398Z" fill="#2F2E41"/>
<path d="M284.541 73.2128C285.259 72.1205 283.486 69.6779 280.579 67.7572C277.672 65.8365 274.732 65.165 274.014 66.2574C273.295 67.3498 275.069 69.7924 277.976 71.7131C280.883 73.6337 283.822 74.3052 284.541 73.2128Z" fill="#2F2E41"/>
<path d="M310.615 61.0398L307.227 67.8186L319.348 73.9009L322.735 67.122L310.615 61.0398Z" fill="#2F2E41"/>
<path d="M324.315 71.713C327.221 69.7923 328.995 67.3498 328.277 66.2574C327.558 65.165 324.619 65.8365 321.712 67.7572C318.805 69.6778 317.031 72.1204 317.75 73.2128C318.468 74.3052 321.408 73.6337 324.315 71.713Z" fill="#2F2E41"/>
<path d="M299.402 47.069C304.102 47.069 307.913 43.2504 307.913 38.54C307.913 33.8295 304.102 30.011 299.402 30.011C294.701 30.011 290.89 33.8295 290.89 38.54C290.89 43.2504 294.701 47.069 299.402 47.069Z" fill="white"/>
<path d="M301.472 44.0327C302.575 42.9271 302.569 41.1282 301.458 40.0147C300.347 38.9012 298.552 38.8949 297.448 40.0005C296.345 41.1062 296.351 42.9051 297.462 44.0185C298.574 45.132 300.369 45.1384 301.472 44.0327Z" fill="#3F3D56"/>
<path d="M320.79 17.4955C321.165 8.25666 313.219 0.43133 303.043 0.0171173C292.866 -0.397095 284.313 6.75661 283.939 15.9954C283.564 25.2342 290.638 27.3333 300.814 27.7476C310.991 28.1618 320.416 26.7342 320.79 17.4955Z" fill="#F2C94C"/>
<path d="M335.145 57.7116C336.783 56.3024 334.48 50.9214 330.001 45.6926C325.521 40.4639 320.562 37.3675 318.924 38.7766C317.286 40.1858 319.589 45.5669 324.069 50.7956C328.548 56.0244 333.507 59.1207 335.145 57.7116Z" fill="#2F2E41"/>
<path d="M278.291 50.7954C282.771 45.5667 285.074 40.1856 283.436 38.7765C281.798 37.3673 276.839 40.4637 272.359 45.6924C267.88 50.9212 265.577 56.3023 267.215 57.7114C268.853 59.1206 273.812 56.0242 278.291 50.7954Z" fill="#2F2E41"/>
<path d="M307.985 54.4786C308.118 55.2132 308.106 55.967 307.949 56.6969C307.792 57.4268 307.492 58.1185 307.068 58.7325C306.644 59.3465 306.104 59.8708 305.478 60.2755C304.851 60.6802 304.152 60.9573 303.419 61.091C302.686 61.2248 301.933 61.2125 301.205 61.0549C300.477 60.8973 299.786 60.5976 299.174 60.1727C298.561 59.7478 298.038 59.2061 297.634 58.5786C297.23 57.951 296.953 57.2499 296.82 56.5153L296.818 56.5043C296.26 53.4143 298.644 52.3208 301.728 51.7614C304.811 51.202 307.427 51.3885 307.985 54.4786Z" fill="white"/>
<path d="M500.441 185.295C502.137 183.871 499.844 178.326 495.319 172.91C490.793 167.493 485.749 164.257 484.052 165.68C482.355 167.104 484.648 172.649 489.174 178.065C493.699 183.482 498.744 186.718 500.441 185.295Z" fill="#2F2E41"/>
<path d="M489.312 179.135C493.771 165.732 486.542 151.244 473.167 146.777C459.791 142.309 445.334 149.553 440.875 162.956C436.417 176.359 443.645 190.847 457.021 195.315C470.396 199.783 484.854 192.539 489.312 179.135Z" fill="#2F2E41"/>
<path d="M475.899 191.123H468.143V205.047H475.899V191.123Z" fill="#2F2E41"/>
<path d="M460.388 191.123H452.632V205.047H460.388V191.123Z" fill="#2F2E41"/>
<path d="M469.436 207.637C473.005 207.637 475.899 206.55 475.899 205.209C475.899 203.867 473.005 202.78 469.436 202.78C465.867 202.78 462.973 203.867 462.973 205.209C462.973 206.55 465.867 207.637 469.436 207.637Z" fill="#2F2E41"/>
<path d="M453.925 207.314C457.494 207.314 460.388 206.226 460.388 204.885C460.388 203.544 457.494 202.456 453.925 202.456C450.356 202.456 447.462 203.544 447.462 204.885C447.462 206.226 450.356 207.314 453.925 207.314Z" fill="#2F2E41"/>
<path d="M457.078 138.888C459.357 129.689 469.419 124.276 479.552 126.797C489.685 129.318 496.051 138.82 493.772 148.019C491.492 157.218 483.93 157.248 473.797 154.726C463.664 152.205 454.798 148.088 457.078 138.888Z" fill="#CCCCCC"/>
<path d="M447.873 164.657C448.821 162.653 444.427 158.575 438.057 155.547C431.688 152.52 425.755 151.69 424.807 153.694C423.859 155.698 428.253 159.776 434.623 162.804C440.992 165.831 446.924 166.661 447.873 164.657Z" fill="#2F2E41"/>
<path d="M461.277 174.177C465.978 174.177 469.788 170.358 469.788 165.648C469.788 160.937 465.978 157.119 461.277 157.119C456.576 157.119 452.766 160.937 452.766 165.648C452.766 170.358 456.576 174.177 461.277 174.177Z" fill="white"/>
<path d="M457.779 165.434C459.346 165.434 460.616 164.161 460.616 162.591C460.616 161.02 459.346 159.748 457.779 159.748C456.212 159.748 454.942 161.02 454.942 162.591C454.942 164.161 456.212 165.434 457.779 165.434Z" fill="#3F3D56"/>
<path d="M466.616 183.417C466.885 184.9 466.554 186.43 465.698 187.669C464.842 188.908 463.529 189.756 462.049 190.026C460.57 190.296 459.043 189.966 457.806 189.108C456.569 188.251 455.722 186.937 455.451 185.454L455.449 185.443C454.891 182.353 457.275 181.26 460.359 180.7C463.443 180.141 466.058 180.327 466.616 183.417Z" fill="white"/>
<path d="M430.442 214H421.821C420.761 213.999 419.745 213.576 418.995 212.825C418.246 212.074 417.824 211.056 417.823 209.993V55.2792C417.824 54.2169 418.246 53.1986 418.995 52.4475C419.745 51.6964 420.761 51.2739 421.821 51.2727H430.442C431.502 51.2739 432.518 51.6964 433.268 52.4475C434.017 53.1986 434.439 54.2169 434.44 55.2792V209.993C434.439 211.056 434.017 212.074 433.268 212.825C432.518 213.576 431.502 213.999 430.442 214Z" fill="#F2C94C"/>
<path d="M67.6603 196.627C81.7593 196.627 93.1889 185.174 93.1889 171.046C93.1889 156.917 81.7593 145.464 67.6603 145.464C53.5612 145.464 42.1316 156.917 42.1316 171.046C42.1316 185.174 53.5612 196.627 67.6603 196.627Z" fill="#2F2E41"/>
<path d="M63.7825 191.123H56.027V205.047H63.7825V191.123Z" fill="#2F2E41"/>
<path d="M79.2936 191.123H71.538V205.047H79.2936V191.123Z" fill="#2F2E41"/>
<path d="M62.4899 207.637C66.0593 207.637 68.9528 206.55 68.9528 205.209C68.9528 203.867 66.0593 202.78 62.4899 202.78C58.9205 202.78 56.0269 203.867 56.0269 205.209C56.0269 206.55 58.9205 207.637 62.4899 207.637Z" fill="#2F2E41"/>
<path d="M78.001 207.314C81.5704 207.314 84.464 206.226 84.464 204.885C84.464 203.544 81.5704 202.456 78.001 202.456C74.4316 202.456 71.538 203.544 71.538 204.885C71.538 206.226 74.4316 207.314 78.001 207.314Z" fill="#2F2E41"/>
<path d="M68.3066 173.312C73.1252 173.312 77.0315 169.398 77.0315 164.569C77.0315 159.74 73.1252 155.826 68.3066 155.826C63.4879 155.826 59.5816 159.74 59.5816 164.569C59.5816 169.398 63.4879 173.312 68.3066 173.312Z" fill="white"/>
<path d="M68.3066 167.484C69.9128 167.484 71.2149 166.179 71.2149 164.569C71.2149 162.96 69.9128 161.655 68.3066 161.655C66.7003 161.655 65.3982 162.96 65.3982 164.569C65.3982 166.179 66.7003 167.484 68.3066 167.484Z" fill="#3F3D56"/>
<path d="M42.8966 147.255C40.8353 138.004 47.4245 128.657 57.6141 126.377C67.8037 124.097 77.7349 129.748 79.7962 138.999C81.8575 148.249 75.1046 151.661 64.915 153.941C54.7255 156.221 44.9579 156.506 42.8966 147.255Z" fill="#CCCCCC"/>
<path d="M86.2744 79.6537C88.7913 73.055 89.1559 67.0639 87.0887 66.2721C85.0214 65.4803 81.3053 70.1877 78.7884 76.7864C76.2715 83.3851 75.907 89.3762 77.9742 90.168C80.0414 90.9598 83.7575 86.2524 86.2744 79.6537Z" fill="#2F2E41"/>
<path d="M84.1343 101.636C86.3927 87.6898 76.9415 74.5496 63.0245 72.2865C49.1075 70.0234 35.9947 79.4942 33.7362 93.4403C31.4778 107.386 40.929 120.527 54.846 122.79C68.763 125.053 81.8758 115.582 84.1343 101.636Z" fill="#2F2E41"/>
<path d="M55.0575 117.615H47.302V131.539H55.0575V117.615Z" fill="#2F2E41"/>
<path d="M70.5686 117.615H62.813V131.539H70.5686V117.615Z" fill="#2F2E41"/>
<path d="M53.7649 134.13C57.3343 134.13 60.2279 133.043 60.2279 131.701C60.2279 130.36 57.3343 129.273 53.7649 129.273C50.1955 129.273 47.302 130.36 47.302 131.701C47.302 133.043 50.1955 134.13 53.7649 134.13Z" fill="#2F2E41"/>
<path d="M69.276 133.806C72.8454 133.806 75.7389 132.719 75.7389 131.377C75.7389 130.036 72.8454 128.949 69.276 128.949C65.7066 128.949 62.813 130.036 62.813 131.377C62.813 132.719 65.7066 133.806 69.276 133.806Z" fill="#2F2E41"/>
<path d="M59.8379 99.8011C64.6545 99.6593 68.4443 95.6315 68.3028 90.8049C68.1612 85.9782 64.1419 82.1804 59.3253 82.3223C54.5087 82.4641 50.7188 86.4919 50.8603 91.3185C51.0019 96.1452 55.0213 99.9429 59.8379 99.8011Z" fill="white"/>
<path d="M59.5816 93.976C61.1878 93.976 62.4899 92.6712 62.4899 91.0616C62.4899 89.452 61.1878 88.1472 59.5816 88.1472C57.9753 88.1472 56.6732 89.452 56.6732 91.0616C56.6732 92.6712 57.9753 93.976 59.5816 93.976Z" fill="#3F3D56"/>
<path d="M34.1716 73.7478C32.1103 64.497 38.6995 55.1495 48.8891 52.8695C59.0786 50.5895 69.0099 56.2405 71.0712 65.4913C73.1325 74.742 66.3796 78.1539 56.19 80.4339C46.0005 82.7139 36.2329 82.9987 34.1716 73.7478Z" fill="#F2C94C"/>
<path d="M41.7144 91.1495C42.6628 89.1457 38.2681 85.0673 31.8987 82.0401C25.5292 79.0128 19.5969 78.1831 18.6486 80.1869C17.7002 82.1906 22.0949 86.269 28.4643 89.2962C34.8338 92.3235 40.7661 93.1532 41.7144 91.1495Z" fill="#2F2E41"/>
<path d="M46.3957 106.767C46.3957 109.271 52.8291 114.215 59.9679 114.215C67.1067 114.215 73.8001 107.166 73.8001 104.662C73.8001 102.159 67.1066 105.148 59.9679 105.148C52.8291 105.148 46.3957 104.263 46.3957 106.767Z" fill="white"/>
<path d="M307.043 137.637L298.677 139.72C297.648 139.975 296.56 139.811 295.651 139.263C294.743 138.715 294.089 137.829 293.832 136.798L271.818 48.0293C271.564 46.9981 271.728 45.9079 272.275 44.9979C272.821 44.0878 273.706 43.4322 274.734 43.1749L283.101 41.0914C284.13 40.8364 285.218 41.0008 286.126 41.5486C287.034 42.0964 287.688 42.9828 287.945 44.0134L309.959 132.782C310.213 133.813 310.049 134.904 309.502 135.814C308.956 136.724 308.071 137.379 307.043 137.637Z" fill="#F2C94C"/>
<path d="M108.201 92.055L89.4091 95.7308C89.1048 95.7913 88.7907 95.7815 88.4908 95.702C88.1908 95.6225 87.9129 95.4754 87.6782 95.2721C87.4388 95.0662 87.2493 94.8083 87.1244 94.518C86.9994 94.2278 86.9422 93.9127 86.9571 93.5969C87.2776 85.8752 85.7798 78.1863 82.5848 71.1522C82.4526 70.8652 82.3874 70.5517 82.3943 70.2356C82.4012 69.9195 82.4799 69.6092 82.6246 69.3282C82.7657 69.0514 82.968 68.8104 83.2161 68.6237C83.4642 68.437 83.7515 68.3095 84.0562 68.2509L102.848 64.5752C103.328 64.4822 103.826 64.5631 104.252 64.8034C104.679 65.0437 105.006 65.4278 105.176 65.8874C107.956 73.6254 109.537 81.7441 109.866 89.9616C109.88 90.4516 109.721 90.9309 109.416 91.3143C109.111 91.6977 108.681 91.9601 108.201 92.055Z" fill="#FF6584"/>
<path d="M25.8067 109.281L7.0153 112.957C6.71098 113.017 6.39688 113.007 6.09693 112.928C5.79698 112.848 5.51908 112.701 5.2844 112.498C5.04494 112.292 4.8555 112.034 4.73053 111.744C4.60555 111.454 4.54833 111.139 4.56322 110.823C4.88379 103.101 3.386 95.4121 0.191023 88.378C0.058763 88.091 -0.0064065 87.7775 0.000475686 87.4615C0.00735788 87.1454 0.0861112 86.8351 0.230739 86.5541C0.371862 86.2772 0.57417 86.0362 0.82227 85.8495C1.07037 85.6628 1.35771 85.5353 1.66242 85.4767L20.4538 81.801C20.9342 81.708 21.4319 81.7889 21.8583 82.0292C22.2847 82.2695 22.6122 82.6537 22.7824 83.1132C25.5621 90.8512 27.1435 98.9699 27.4719 107.187C27.4866 107.677 27.3274 108.157 27.0224 108.54C26.7175 108.923 26.2867 109.186 25.8067 109.281Z" fill="#CCCCCC"/>
<path d="M148.738 49.7645C152.339 49.7645 155.258 46.8391 155.258 43.2305C155.258 39.6219 152.339 36.6965 148.738 36.6965C145.137 36.6965 142.218 39.6219 142.218 43.2305C142.218 46.8391 145.137 49.7645 148.738 49.7645Z" fill="#E6E6E6"/>
<path d="M148.738 75.8053C152.339 75.8053 155.258 72.8799 155.258 69.2713C155.258 65.6627 152.339 62.7373 148.738 62.7373C145.137 62.7373 142.218 65.6627 142.218 69.2713C142.218 72.8799 145.137 75.8053 148.738 75.8053Z" fill="#E6E6E6"/>
<path d="M148.738 101.846C152.339 101.846 155.258 98.9204 155.258 95.3118C155.258 91.7032 152.339 88.7778 148.738 88.7778C145.137 88.7778 142.218 91.7032 142.218 95.3118C142.218 98.9204 145.137 101.846 148.738 101.846Z" fill="#E6E6E6"/>
<path d="M148.738 127.886C152.339 127.886 155.258 124.961 155.258 121.352C155.258 117.744 152.339 114.818 148.738 114.818C145.137 114.818 142.218 117.744 142.218 121.352C142.218 124.961 145.137 127.886 148.738 127.886Z" fill="#E6E6E6"/>
<path d="M148.738 153.927C152.339 153.927 155.258 151.002 155.258 147.393C155.258 143.784 152.339 140.859 148.738 140.859C145.137 140.859 142.218 143.784 142.218 147.393C142.218 151.002 145.137 153.927 148.738 153.927Z" fill="#E6E6E6"/>
<path d="M148.738 179.968C152.339 179.968 155.258 177.042 155.258 173.434C155.258 169.825 152.339 166.9 148.738 166.9C145.137 166.9 142.218 169.825 142.218 173.434C142.218 177.042 145.137 179.968 148.738 179.968Z" fill="#E6E6E6"/>
</g>
<defs>
<clipPath id="clip0_3_234">
<rect width="501" height="214" fill="white"/>
</clipPath>
</defs>
</svg>
